<?xml version="1.0" encoding="UTF-8" standalone="no"?>
<!DOCTYPE svg PUBLIC "-//W3C//DTD SVG 1.1//EN"
 "http://www.w3.org/Graphics/SVG/1.1/DTD/svg11.dtd">
<!-- Generated by graphviz version 2.28.0 (20111028.1807)
 -->
<!-- Title: G Pages: 1 -->
<svg width="224pt" height="408pt"
 viewBox="0.00 0.00 224.00 408.00" xmlns="http://www.w3.org/2000/svg" xmlns:xlink="http://www.w3.org/1999/xlink">
<g id="graph1" class="graph" transform="scale(1 1) rotate(0) translate(4 404)">
<title>G</title>
<polygon fill="white" stroke="white" points="-4,5 -4,-404 221,-404 221,5 -4,5"/>
<g id="graph2" class="cluster"><title>cluster_0</title>
<polygon fill="lightgrey" stroke="lightgrey" points="8,-64 8,-356 98,-356 98,-64 8,-64"/>
<text text-anchor="middle" x="53" y="-338" font-family="Times,serif" font-size="14.00">process #1</text>
</g>
<g id="graph3" class="cluster"><title>cluster_1</title>
<polygon fill="none" stroke="red" points="133,-64 133,-356 208,-356 208,-64 133,-64"/>
<text text-anchor="middle" x="170.5" y="-338" font-family="Times,serif" font-size="14.00">process #2</text>
</g>
<!-- a0 -->
<g id="node2" class="node"><title>a0</title>
<ellipse fill="white" stroke="white" cx="63" cy="-306" rx="27" ry="18"/>
<text text-anchor="middle" x="63" y="-300.4" font-family="Times,serif" font-size="14.00">a0</text>
</g>
<!-- a1 -->
<g id="node4" class="node"><title>a1</title>
<ellipse fill="white" stroke="white" cx="63" cy="-234" rx="27" ry="18"/>
<text text-anchor="middle" x="63" y="-228.4" font-family="Times,serif" font-size="14.00">a1</text>
</g>
<!-- a0&#45;&gt;a1 -->
<g id="edge3" class="edge"><title>a0&#45;&gt;a1</title>
<path fill="none" stroke="black" d="M63,-287.697C63,-279.983 63,-270.712 63,-262.112"/>
<polygon fill="black" stroke="black" points="66.5001,-262.104 63,-252.104 59.5001,-262.104 66.5001,-262.104"/>
</g>
<!-- a2 -->
<g id="node5" class="node"><title>a2</title>
<ellipse fill="white" stroke="white" cx="63" cy="-162" rx="27" ry="18"/>
<text text-anchor="middle" x="63" y="-156.4" font-family="Times,serif" font-size="14.00">a2</text>
</g>
<!-- a1&#45;&gt;a2 -->
<g id="edge4" class="edge"><title>a1&#45;&gt;a2</title>
<path fill="none" stroke="black" d="M63,-215.697C63,-207.983 63,-198.712 63,-190.112"/>
<polygon fill="black" stroke="black" points="66.5001,-190.104 63,-180.104 59.5001,-190.104 66.5001,-190.104"/>
</g>
<!-- b3 -->
<g id="node12" class="node"><title>b3</title>
<ellipse fill="lightgrey" stroke="black" cx="168" cy="-90" rx="27" ry="18"/>
<text text-anchor="middle" x="168" y="-84.4" font-family="Times,serif" font-size="14.00">b3</text>
</g>
<!-- a1&#45;&gt;b3 -->
<g id="edge16" class="edge"><title>a1&#45;&gt;b3</title>
<path fill="none" stroke="black" d="M74.4367,-217.533C92.7409,-192.779 128.75,-144.081 150.366,-114.847"/>
<polygon fill="black" stroke="black" points="153.446,-116.569 156.577,-106.448 147.818,-112.407 153.446,-116.569"/>
</g>
<!-- a3 -->
<g id="node6" class="node"><title>a3</title>
<ellipse fill="white" stroke="white" cx="63" cy="-90" rx="27" ry="18"/>
<text text-anchor="middle" x="63" y="-84.4" font-family="Times,serif" font-size="14.00">a3</text>
</g>
<!-- a2&#45;&gt;a3 -->
<g id="edge5" class="edge"><title>a2&#45;&gt;a3</title>
<path fill="none" stroke="black" d="M63,-143.697C63,-135.983 63,-126.712 63,-118.112"/>
<polygon fill="black" stroke="black" points="66.5001,-118.104 63,-108.104 59.5001,-118.104 66.5001,-118.104"/>
</g>
<!-- a3&#45;&gt;a0 -->
<g id="edge20" class="edge"><title>a3&#45;&gt;a0</title>
<path fill="none" stroke="black" d="M49.2496,-105.931C41.0392,-115.9 31.381,-129.753 27,-144 12.8916,-189.88 12.8916,-206.12 27,-252 30.2858,-262.685 36.5399,-273.149 42.9254,-281.919"/>
<polygon fill="black" stroke="black" points="40.354,-284.314 49.2496,-290.069 45.8844,-280.023 40.354,-284.314"/>
</g>
<!-- end -->
<g id="node20" class="node"><title>end</title>
<polygon fill="none" stroke="black" points="133.161,-36.2145 96.8393,-36.2145 96.8393,0.214502 133.161,0.214502 133.161,-36.2145"/>
<polyline fill="none" stroke="black" points="108.839,-36.2145 96.8393,-24.2145 "/>
<polyline fill="none" stroke="black" points="96.8393,-11.7855 108.839,0.214502 "/>
<polyline fill="none" stroke="black" points="121.161,0.214502 133.161,-11.7855 "/>
<polyline fill="none" stroke="black" points="133.161,-24.2145 121.161,-36.2145 "/>
<text text-anchor="middle" x="115" y="-12.4" font-family="Times,serif" font-size="14.00">end</text>
</g>
<!-- a3&#45;&gt;end -->
<g id="edge22" class="edge"><title>a3&#45;&gt;end</title>
<path fill="none" stroke="black" d="M74.5405,-73.4647C80.8351,-64.9912 88.7878,-54.2857 95.9731,-44.6131"/>
<polygon fill="black" stroke="black" points="98.8754,-46.5755 102.029,-36.4609 93.2562,-42.4012 98.8754,-46.5755"/>
</g>
<!-- b0 -->
<g id="node8" class="node"><title>b0</title>
<ellipse fill="lightgrey" stroke="black" cx="170" cy="-306" rx="27" ry="18"/>
<text text-anchor="middle" x="170" y="-300.4" font-family="Times,serif" font-size="14.00">b0</text>
</g>
<!-- b1 -->
<g id="node10" class="node"><title>b1</title>
<ellipse fill="lightgrey" stroke="black" cx="171" cy="-234" rx="27" ry="18"/>
<text text-anchor="middle" x="171" y="-228.4" font-family="Times,serif" font-size="14.00">b1</text>
</g>
<!-- b0&#45;&gt;b1 -->
<g id="edge8" class="edge"><title>b0&#45;&gt;b1</title>
<path fill="none" stroke="black" d="M170.247,-287.697C170.357,-279.983 170.49,-270.712 170.613,-262.112"/>
<polygon fill="black" stroke="black" points="174.112,-262.153 170.756,-252.104 167.113,-262.053 174.112,-262.153"/>
</g>
<!-- b2 -->
<g id="node11" class="node"><title>b2</title>
<ellipse fill="lightgrey" stroke="black" cx="173" cy="-162" rx="27" ry="18"/>
<text text-anchor="middle" x="173" y="-156.4" font-family="Times,serif" font-size="14.00">b2</text>
</g>
<!-- b1&#45;&gt;b2 -->
<g id="edge9" class="edge"><title>b1&#45;&gt;b2</title>
<path fill="none" stroke="black" d="M171.494,-215.697C171.715,-207.983 171.98,-198.712 172.225,-190.112"/>
<polygon fill="black" stroke="black" points="175.724,-190.2 172.511,-180.104 168.727,-190 175.724,-190.2"/>
</g>
<!-- b2&#45;&gt;a3 -->
<g id="edge18" class="edge"><title>b2&#45;&gt;a3</title>
<path fill="none" stroke="black" d="M153.839,-148.807C136.331,-137.665 110.241,-121.062 90.5068,-108.504"/>
<polygon fill="black" stroke="black" points="92.2567,-105.469 81.941,-103.053 88.4985,-111.375 92.2567,-105.469"/>
</g>
<!-- b2&#45;&gt;b3 -->
<g id="edge10" class="edge"><title>b2&#45;&gt;b3</title>
<path fill="none" stroke="black" d="M171.764,-143.697C171.213,-135.983 170.551,-126.712 169.937,-118.112"/>
<polygon fill="black" stroke="black" points="173.425,-117.83 169.222,-108.104 166.443,-118.328 173.425,-117.83"/>
</g>
<!-- b3&#45;&gt;end -->
<g id="edge24" class="edge"><title>b3&#45;&gt;end</title>
<path fill="none" stroke="black" d="M156.238,-73.4647C149.822,-64.9912 141.716,-54.2857 134.393,-44.6131"/>
<polygon fill="black" stroke="black" points="137.047,-42.3207 128.22,-36.4609 131.466,-46.5462 137.047,-42.3207"/>
</g>
<!-- start -->
<g id="node13" class="node"><title>start</title>
<polygon fill="none" stroke="black" points="116,-400 76.8184,-382 116,-364 155.182,-382 116,-400"/>
<polyline fill="none" stroke="black" points="87.7228,-387.009 87.7228,-376.991 "/>
<polyline fill="none" stroke="black" points="105.096,-369.009 126.904,-369.009 "/>
<polyline fill="none" stroke="black" points="144.277,-376.991 144.277,-387.009 "/>
<polyline fill="none" stroke="black" points="126.904,-394.991 105.096,-394.991 "/>
<text text-anchor="middle" x="116" y="-376.4" font-family="Times,serif" font-size="14.00">start</text>
</g>
<!-- start&#45;&gt;a0 -->
<g id="edge12" class="edge"><title>start&#45;&gt;a0</title>
<path fill="none" stroke="black" d="M106.768,-368.11C99.3944,-357.815 88.8613,-343.108 79.976,-330.702"/>
<polygon fill="black" stroke="black" points="82.8152,-328.656 74.1469,-322.564 77.1242,-332.731 82.8152,-328.656"/>
</g>
<!-- start&#45;&gt;b0 -->
<g id="edge14" class="edge"><title>start&#45;&gt;b0</title>
<path fill="none" stroke="black" d="M125.406,-368.11C132.919,-357.815 143.651,-343.108 152.704,-330.702"/>
<polygon fill="black" stroke="black" points="155.575,-332.705 158.643,-322.564 149.921,-328.578 155.575,-332.705"/>
</g>
</g>
</svg>
